<svg version="1.2" xmlns="http://www.w3.org/2000/svg" viewBox="0 0 448 512" width="448" height="512"><style>.a{fill:#fff}</style><path fill-rule="evenodd" class="a" d="m128 0c13.3 0 24 10.8 24 24v40h144v-40c0-13.3 10.7-24 24-24 13.3 0 24 10.8 24 24v40h40c35.3 0 64 28.7 64 64v320c0 35.3-28.7 64-64 64h-320c-35.4 0-64-28.7-64-64v-320c0-35.3 28.6-64 64-64h40v-40c0-13.3 10.7-24 24-24zm272 192h-352v256c0 8.8 7.2 16 16 16h320c8.8 0 16-7.2 16-16zm-183.9 216.1c-8.5 10.2-23.7 10.2-33.1 0l-64-64c-9.3-8.5-9.3-23.7 0-33.1 9.4-9.3 24.6-9.3 33.1 0l47.9 47.1 95-95.1c9.4-9.3 24.6-9.3 33.1 0 10.2 9.4 10.2 24.6 0 33.1z"/></svg>