<svg version="1.2" xmlns="http://www.w3.org/2000/svg" viewBox="0 0 512 512" width="512" height="512"><style>.a{fill:#fff}</style><path fill-rule="evenodd" class="a" d="m0 256c0-141.4 114.6-256 256-256 141.4 0 256 114.6 256 256 0 141.4-114.6 256-256 256-141.4 0-256-114.6-256-256zm141.5 67.9c-6.7 5.8-7.4 15.9-1.6 22.6 22.3 25.6 61 53.5 116.1 53.5 55.1 0 93.8-27.9 116.1-53.5 5.8-6.7 5.1-16.8-1.6-22.6-6.7-5.8-16.8-5.1-22.6 1.6-17.9 20.7-48.5 42.5-91.9 42.5-43.4 0-74-21.8-91.9-42.5-5.8-6.7-15.9-7.4-22.6-1.6zm34.9-147.9c-17.7 0-32 14.3-32 32 0 17.7 14.3 32 32 32 17.7 0 32-14.3 32-32 0-17.7-14.3-32-32-32zm192 32c0-17.7-14.3-32-32-32-17.7 0-32 14.3-32 32 0 17.7 14.3 32 32 32 17.7 0 32-14.3 32-32z"/></svg>