<svg version="1.2" xmlns="http://www.w3.org/2000/svg" viewBox="0 0 512 512" width="512" height="512"><style>.a{fill:#fff}</style><path class="a" d="m278.4 215.6c3.9-6.2 3.2-14.4-2.2-19.8-6.2-6.2-16.4-6.2-22.6 0l-189.6 189.5v-55.3c0-67.9 27-133 75-181l103.7-103.7c29-29 68.3-45.3 109.3-45.3 41 0 80.3 16.3 109.2 45.2l5.5 5.5c29 29 45.3 68.3 45.3 109.3 0 24.1-5.6 47.6-16.4 68.6-1.9 3.8-5.3 6.5-9.3 7.7l-112 33.6c-3.8 1.2-6.5 4.7-6.5 8.8 0 5.1 4.1 9.2 9.2 9.2h32.2c14.2 0 21.4 17.2 11.3 27.3l-22.4 22.4c-1.9 1.9-4.2 3.2-6.7 4l-81 24.3c-3.8 1.2-6.5 4.7-6.5 8.8 0 5.1 4.1 9.2 9.2 9.2 13.3 0 18.9 15.8 7.8 23-41.1 26.6-89.3 41-139 41h-68l-57 57c-9.3 9.4-24.5 9.3-33.9 0-9.4-9.3-9.4-24.5 0-33.9l255.5-255.4z"/></svg>