<svg version="1.2" xmlns="http://www.w3.org/2000/svg" viewBox="0 0 576 512" width="576" height="512"><style>.a{fill:#fff}</style><path fill-rule="evenodd" class="a" d="m565.6 36.2c6.5 4.5 10.4 11.9 10.4 19.8v336c0 9.1-6.2 18.9-15.5 22.4l-168 64c-5.1 2-10.8 2.1-16.1 0.4l-183.9-61.3-160 60.9c-7.3 2.8-15.6 1.8-22.1-2.6-6.5-4.5-10.4-11.9-10.4-19.8v-336c0-10 6.1-18.9 15.5-22.4l168-64c5.1-2 10.8-2.1 16.1-0.4l183.9 61.3 160-60.9c7.3-2.8 15.6-1.8 22.1 2.6zm-517.6 385l120-45.7v-284.7l-120 45.7zm312-283.9l-144-48v285.4l144 48zm48 283.9l120-45.7v-284.7l-120 45.7z"/></svg>